<mxfile host="Electron" modified="2024-04-23T14:16:31.010Z" agent="Mozilla/5.0 (X11; Linux x86_64) AppleWebKit/537.36 (KHTML, like Gecko) draw.io/24.2.5 Chrome/120.0.6099.109 Electron/28.1.0 Safari/537.36" etag="XRDXxcs1dMiZUa3jodXL" version="24.2.5" type="device">
  <diagram name="Page-1" id="XowFCG3Ka7jEHskfLVU-">
    <mxGraphModel dx="1434" dy="835" grid="1" gridSize="10" guides="1" tooltips="1" connect="1" arrows="1" fold="1" page="1" pageScale="1" pageWidth="850" pageHeight="1100" math="0" shadow="0">
      <root>
        <mxCell id="0" />
        <mxCell id="1" parent="0" />
        <mxCell id="vUPf7nipqJu-CM0d_MJs-1" value="PageLoad" style="rounded=1;whiteSpace=wrap;html=1;shadow=0;strokeColor=default;strokeWidth=2;fontFamily=Ubuntu;fontSize=22;fontColor=#264653;fontStyle=0;fillColor=#CFE2F3;comic=1;" parent="1" vertex="1">
          <mxGeometry x="150" y="220" width="120" height="60" as="geometry" />
        </mxCell>
        <mxCell id="vUPf7nipqJu-CM0d_MJs-2" value="PageUnload" style="rounded=1;whiteSpace=wrap;html=1;shadow=0;strokeColor=default;strokeWidth=2;fontFamily=Ubuntu;fontSize=22;fontColor=#264653;fontStyle=0;fillColor=#CFE2F3;comic=1;" parent="1" vertex="1">
          <mxGeometry x="140" y="310" width="130" height="60" as="geometry" />
        </mxCell>
        <mxCell id="vUPf7nipqJu-CM0d_MJs-4" value="KeyPress" style="rounded=1;whiteSpace=wrap;html=1;shadow=0;strokeColor=default;strokeWidth=2;fontFamily=Ubuntu;fontSize=22;fontColor=#264653;fontStyle=0;fillColor=#CFE2F3;comic=1;" parent="1" vertex="1">
          <mxGeometry x="150" y="400" width="120" height="60" as="geometry" />
        </mxCell>
        <mxCell id="PiwZXt4cNnozb1wIIHgG-2" value="Click" style="rounded=1;whiteSpace=wrap;html=1;shadow=0;strokeColor=default;strokeWidth=2;fontFamily=Ubuntu;fontSize=22;fontColor=#264653;fontStyle=0;fillColor=#CFE2F3;comic=1;" parent="1" vertex="1">
          <mxGeometry x="150" y="490" width="120" height="60" as="geometry" />
        </mxCell>
        <mxCell id="PiwZXt4cNnozb1wIIHgG-8" value="" style="group" parent="1" vertex="1" connectable="0">
          <mxGeometry x="330" y="230" width="200" height="40" as="geometry" />
        </mxCell>
        <mxCell id="vUPf7nipqJu-CM0d_MJs-5" value="0" style="rounded=0;whiteSpace=wrap;html=1;shadow=0;strokeColor=#264653;strokeWidth=2;fontFamily=Ubuntu;fontSize=22;fontColor=#264653;fontStyle=0;fillColor=#2a9d8f;comic=0;" parent="PiwZXt4cNnozb1wIIHgG-8" vertex="1">
          <mxGeometry width="50" height="40" as="geometry" />
        </mxCell>
        <mxCell id="PiwZXt4cNnozb1wIIHgG-5" value="" style="rounded=0;whiteSpace=wrap;html=1;shadow=0;strokeColor=#666666;strokeWidth=2;fontFamily=Ubuntu;fontSize=22;fontColor=#333333;fontStyle=0;fillColor=#f5f5f5;comic=0;" parent="PiwZXt4cNnozb1wIIHgG-8" vertex="1">
          <mxGeometry x="50" width="50" height="40" as="geometry" />
        </mxCell>
        <mxCell id="PiwZXt4cNnozb1wIIHgG-6" value="" style="rounded=0;whiteSpace=wrap;html=1;shadow=0;strokeColor=#666666;strokeWidth=2;fontFamily=Ubuntu;fontSize=22;fontColor=#333333;fontStyle=0;fillColor=#f5f5f5;comic=0;" parent="PiwZXt4cNnozb1wIIHgG-8" vertex="1">
          <mxGeometry x="100" width="50" height="40" as="geometry" />
        </mxCell>
        <mxCell id="PiwZXt4cNnozb1wIIHgG-7" value="" style="rounded=0;whiteSpace=wrap;html=1;shadow=0;strokeColor=#666666;strokeWidth=2;fontFamily=Ubuntu;fontSize=22;fontColor=#333333;fontStyle=0;fillColor=#f5f5f5;comic=0;" parent="PiwZXt4cNnozb1wIIHgG-8" vertex="1">
          <mxGeometry x="150" width="50" height="40" as="geometry" />
        </mxCell>
        <mxCell id="PiwZXt4cNnozb1wIIHgG-10" value="" style="group" parent="1" vertex="1" connectable="0">
          <mxGeometry x="330" y="320" width="200" height="40" as="geometry" />
        </mxCell>
        <mxCell id="PiwZXt4cNnozb1wIIHgG-11" value="1" style="rounded=0;whiteSpace=wrap;html=1;shadow=0;strokeColor=#264653;strokeWidth=2;fontFamily=Ubuntu;fontSize=22;fontColor=#264653;fontStyle=0;fillColor=#2a9d8f;comic=0;" parent="PiwZXt4cNnozb1wIIHgG-10" vertex="1">
          <mxGeometry width="50" height="40" as="geometry" />
        </mxCell>
        <mxCell id="PiwZXt4cNnozb1wIIHgG-12" value="" style="rounded=0;whiteSpace=wrap;html=1;shadow=0;strokeColor=#666666;strokeWidth=2;fontFamily=Ubuntu;fontSize=22;fontColor=#333333;fontStyle=0;fillColor=#f5f5f5;comic=0;" parent="PiwZXt4cNnozb1wIIHgG-10" vertex="1">
          <mxGeometry x="50" width="50" height="40" as="geometry" />
        </mxCell>
        <mxCell id="PiwZXt4cNnozb1wIIHgG-13" value="" style="rounded=0;whiteSpace=wrap;html=1;shadow=0;strokeColor=#666666;strokeWidth=2;fontFamily=Ubuntu;fontSize=22;fontColor=#333333;fontStyle=0;fillColor=#f5f5f5;comic=0;" parent="PiwZXt4cNnozb1wIIHgG-10" vertex="1">
          <mxGeometry x="100" width="50" height="40" as="geometry" />
        </mxCell>
        <mxCell id="PiwZXt4cNnozb1wIIHgG-14" value="" style="rounded=0;whiteSpace=wrap;html=1;shadow=0;strokeColor=#666666;strokeWidth=2;fontFamily=Ubuntu;fontSize=22;fontColor=#333333;fontStyle=0;fillColor=#f5f5f5;comic=0;" parent="PiwZXt4cNnozb1wIIHgG-10" vertex="1">
          <mxGeometry x="150" width="50" height="40" as="geometry" />
        </mxCell>
        <mxCell id="PiwZXt4cNnozb1wIIHgG-15" value="" style="group" parent="1" vertex="1" connectable="0">
          <mxGeometry x="330" y="410" width="200" height="40" as="geometry" />
        </mxCell>
        <mxCell id="PiwZXt4cNnozb1wIIHgG-16" value="2" style="rounded=0;whiteSpace=wrap;html=1;shadow=0;strokeColor=#264653;strokeWidth=2;fontFamily=Ubuntu;fontSize=22;fontColor=#264653;fontStyle=0;fillColor=#2a9d8f;comic=0;" parent="PiwZXt4cNnozb1wIIHgG-15" vertex="1">
          <mxGeometry width="50" height="40" as="geometry" />
        </mxCell>
        <mxCell id="PiwZXt4cNnozb1wIIHgG-17" value="" style="rounded=0;whiteSpace=wrap;html=1;shadow=0;strokeColor=#666666;strokeWidth=2;fontFamily=Ubuntu;fontSize=22;fontColor=#333333;fontStyle=0;fillColor=#f5f5f5;comic=0;" parent="PiwZXt4cNnozb1wIIHgG-15" vertex="1">
          <mxGeometry x="50" width="50" height="40" as="geometry" />
        </mxCell>
        <mxCell id="PiwZXt4cNnozb1wIIHgG-18" value="" style="rounded=0;whiteSpace=wrap;html=1;shadow=0;strokeColor=#666666;strokeWidth=2;fontFamily=Ubuntu;fontSize=22;fontColor=#333333;fontStyle=0;fillColor=#f5f5f5;comic=0;" parent="PiwZXt4cNnozb1wIIHgG-15" vertex="1">
          <mxGeometry x="100" width="50" height="40" as="geometry" />
        </mxCell>
        <mxCell id="PiwZXt4cNnozb1wIIHgG-19" value="" style="rounded=0;whiteSpace=wrap;html=1;shadow=0;strokeColor=#666666;strokeWidth=2;fontFamily=Ubuntu;fontSize=22;fontColor=#333333;fontStyle=0;fillColor=#f5f5f5;comic=0;" parent="PiwZXt4cNnozb1wIIHgG-15" vertex="1">
          <mxGeometry x="150" width="50" height="40" as="geometry" />
        </mxCell>
        <mxCell id="PiwZXt4cNnozb1wIIHgG-31" value="" style="group" parent="1" vertex="1" connectable="0">
          <mxGeometry x="530" y="230" width="200" height="40" as="geometry" />
        </mxCell>
        <mxCell id="PiwZXt4cNnozb1wIIHgG-33" value="" style="rounded=0;whiteSpace=wrap;html=1;shadow=0;strokeColor=#666666;strokeWidth=2;fontFamily=Ubuntu;fontSize=22;fontColor=#333333;fontStyle=0;fillColor=#f5f5f5;comic=0;" parent="PiwZXt4cNnozb1wIIHgG-31" vertex="1">
          <mxGeometry x="50" width="50" height="40" as="geometry" />
        </mxCell>
        <mxCell id="PiwZXt4cNnozb1wIIHgG-34" value="" style="rounded=0;whiteSpace=wrap;html=1;shadow=0;strokeColor=#666666;strokeWidth=2;fontFamily=Ubuntu;fontSize=22;fontColor=#333333;fontStyle=0;fillColor=#f5f5f5;comic=0;" parent="PiwZXt4cNnozb1wIIHgG-31" vertex="1">
          <mxGeometry x="100" width="50" height="40" as="geometry" />
        </mxCell>
        <mxCell id="PiwZXt4cNnozb1wIIHgG-35" value="" style="rounded=0;whiteSpace=wrap;html=1;shadow=0;strokeColor=#666666;strokeWidth=2;fontFamily=Ubuntu;fontSize=22;fontColor=#333333;fontStyle=0;fillColor=#f5f5f5;comic=0;" parent="PiwZXt4cNnozb1wIIHgG-31" vertex="1">
          <mxGeometry x="150" width="50" height="40" as="geometry" />
        </mxCell>
        <mxCell id="PiwZXt4cNnozb1wIIHgG-40" value="" style="rounded=0;whiteSpace=wrap;html=1;shadow=0;strokeColor=#666666;strokeWidth=2;fontFamily=Ubuntu;fontSize=22;fontColor=#333333;fontStyle=0;fillColor=#f5f5f5;comic=0;" parent="PiwZXt4cNnozb1wIIHgG-31" vertex="1">
          <mxGeometry width="50" height="40" as="geometry" />
        </mxCell>
        <mxCell id="PiwZXt4cNnozb1wIIHgG-41" value="" style="group" parent="1" vertex="1" connectable="0">
          <mxGeometry x="730" y="230" width="200" height="40" as="geometry" />
        </mxCell>
        <mxCell id="PiwZXt4cNnozb1wIIHgG-42" value="" style="rounded=0;whiteSpace=wrap;html=1;shadow=0;strokeColor=#666666;strokeWidth=2;fontFamily=Ubuntu;fontSize=22;fontColor=#333333;fontStyle=0;fillColor=#f5f5f5;comic=0;" parent="PiwZXt4cNnozb1wIIHgG-41" vertex="1">
          <mxGeometry x="50" width="50" height="40" as="geometry" />
        </mxCell>
        <mxCell id="PiwZXt4cNnozb1wIIHgG-43" value="" style="rounded=0;whiteSpace=wrap;html=1;shadow=0;strokeColor=#666666;strokeWidth=2;fontFamily=Ubuntu;fontSize=22;fontColor=#333333;fontStyle=0;fillColor=#f5f5f5;comic=0;" parent="PiwZXt4cNnozb1wIIHgG-41" vertex="1">
          <mxGeometry x="100" width="50" height="40" as="geometry" />
        </mxCell>
        <mxCell id="PiwZXt4cNnozb1wIIHgG-44" value="" style="rounded=0;whiteSpace=wrap;html=1;shadow=0;strokeColor=#666666;strokeWidth=2;fontFamily=Ubuntu;fontSize=22;fontColor=#333333;fontStyle=0;fillColor=#f5f5f5;comic=0;" parent="PiwZXt4cNnozb1wIIHgG-41" vertex="1">
          <mxGeometry x="150" width="50" height="40" as="geometry" />
        </mxCell>
        <mxCell id="PiwZXt4cNnozb1wIIHgG-45" value="" style="rounded=0;whiteSpace=wrap;html=1;shadow=0;strokeColor=#666666;strokeWidth=2;fontFamily=Ubuntu;fontSize=22;fontColor=#333333;fontStyle=0;fillColor=#f5f5f5;comic=0;" parent="PiwZXt4cNnozb1wIIHgG-41" vertex="1">
          <mxGeometry width="50" height="40" as="geometry" />
        </mxCell>
        <mxCell id="PiwZXt4cNnozb1wIIHgG-46" value="" style="group" parent="1" vertex="1" connectable="0">
          <mxGeometry x="530" y="320" width="200" height="40" as="geometry" />
        </mxCell>
        <mxCell id="PiwZXt4cNnozb1wIIHgG-47" value="" style="rounded=0;whiteSpace=wrap;html=1;shadow=0;strokeColor=#666666;strokeWidth=2;fontFamily=Ubuntu;fontSize=22;fontColor=#333333;fontStyle=0;fillColor=#f5f5f5;comic=0;" parent="PiwZXt4cNnozb1wIIHgG-46" vertex="1">
          <mxGeometry x="50" width="50" height="40" as="geometry" />
        </mxCell>
        <mxCell id="PiwZXt4cNnozb1wIIHgG-48" value="" style="rounded=0;whiteSpace=wrap;html=1;shadow=0;strokeColor=#666666;strokeWidth=2;fontFamily=Ubuntu;fontSize=22;fontColor=#333333;fontStyle=0;fillColor=#f5f5f5;comic=0;" parent="PiwZXt4cNnozb1wIIHgG-46" vertex="1">
          <mxGeometry x="100" width="50" height="40" as="geometry" />
        </mxCell>
        <mxCell id="PiwZXt4cNnozb1wIIHgG-49" value="" style="rounded=0;whiteSpace=wrap;html=1;shadow=0;strokeColor=#666666;strokeWidth=2;fontFamily=Ubuntu;fontSize=22;fontColor=#333333;fontStyle=0;fillColor=#f5f5f5;comic=0;" parent="PiwZXt4cNnozb1wIIHgG-46" vertex="1">
          <mxGeometry x="150" width="50" height="40" as="geometry" />
        </mxCell>
        <mxCell id="PiwZXt4cNnozb1wIIHgG-50" value="" style="rounded=0;whiteSpace=wrap;html=1;shadow=0;strokeColor=#666666;strokeWidth=2;fontFamily=Ubuntu;fontSize=22;fontColor=#333333;fontStyle=0;fillColor=#f5f5f5;comic=0;" parent="PiwZXt4cNnozb1wIIHgG-46" vertex="1">
          <mxGeometry width="50" height="40" as="geometry" />
        </mxCell>
        <mxCell id="PiwZXt4cNnozb1wIIHgG-51" value="" style="group" parent="1" vertex="1" connectable="0">
          <mxGeometry x="730" y="320" width="200" height="40" as="geometry" />
        </mxCell>
        <mxCell id="PiwZXt4cNnozb1wIIHgG-52" value="" style="rounded=0;whiteSpace=wrap;html=1;shadow=0;strokeColor=#666666;strokeWidth=2;fontFamily=Ubuntu;fontSize=22;fontColor=#333333;fontStyle=0;fillColor=#f5f5f5;comic=0;" parent="PiwZXt4cNnozb1wIIHgG-51" vertex="1">
          <mxGeometry x="50" width="50" height="40" as="geometry" />
        </mxCell>
        <mxCell id="PiwZXt4cNnozb1wIIHgG-53" value="" style="rounded=0;whiteSpace=wrap;html=1;shadow=0;strokeColor=#666666;strokeWidth=2;fontFamily=Ubuntu;fontSize=22;fontColor=#333333;fontStyle=0;fillColor=#f5f5f5;comic=0;" parent="PiwZXt4cNnozb1wIIHgG-51" vertex="1">
          <mxGeometry x="100" width="50" height="40" as="geometry" />
        </mxCell>
        <mxCell id="PiwZXt4cNnozb1wIIHgG-54" value="" style="rounded=0;whiteSpace=wrap;html=1;shadow=0;strokeColor=#666666;strokeWidth=2;fontFamily=Ubuntu;fontSize=22;fontColor=#333333;fontStyle=0;fillColor=#f5f5f5;comic=0;" parent="PiwZXt4cNnozb1wIIHgG-51" vertex="1">
          <mxGeometry x="150" width="50" height="40" as="geometry" />
        </mxCell>
        <mxCell id="PiwZXt4cNnozb1wIIHgG-55" value="" style="rounded=0;whiteSpace=wrap;html=1;shadow=0;strokeColor=#666666;strokeWidth=2;fontFamily=Ubuntu;fontSize=22;fontColor=#333333;fontStyle=0;fillColor=#f5f5f5;comic=0;" parent="PiwZXt4cNnozb1wIIHgG-51" vertex="1">
          <mxGeometry width="50" height="40" as="geometry" />
        </mxCell>
        <mxCell id="PiwZXt4cNnozb1wIIHgG-56" value="" style="group" parent="1" vertex="1" connectable="0">
          <mxGeometry x="730" y="410" width="200" height="40" as="geometry" />
        </mxCell>
        <mxCell id="PiwZXt4cNnozb1wIIHgG-57" value="" style="rounded=0;whiteSpace=wrap;html=1;shadow=0;strokeColor=#666666;strokeWidth=2;fontFamily=Ubuntu;fontSize=22;fontColor=#333333;fontStyle=0;fillColor=#f5f5f5;comic=0;" parent="PiwZXt4cNnozb1wIIHgG-56" vertex="1">
          <mxGeometry x="50" width="50" height="40" as="geometry" />
        </mxCell>
        <mxCell id="PiwZXt4cNnozb1wIIHgG-58" value="" style="rounded=0;whiteSpace=wrap;html=1;shadow=0;strokeColor=#666666;strokeWidth=2;fontFamily=Ubuntu;fontSize=22;fontColor=#333333;fontStyle=0;fillColor=#f5f5f5;comic=0;" parent="PiwZXt4cNnozb1wIIHgG-56" vertex="1">
          <mxGeometry x="100" width="50" height="40" as="geometry" />
        </mxCell>
        <mxCell id="PiwZXt4cNnozb1wIIHgG-59" value="" style="rounded=0;whiteSpace=wrap;html=1;shadow=0;strokeColor=#666666;strokeWidth=2;fontFamily=Ubuntu;fontSize=22;fontColor=#333333;fontStyle=0;fillColor=#f5f5f5;comic=0;" parent="PiwZXt4cNnozb1wIIHgG-56" vertex="1">
          <mxGeometry x="150" width="50" height="40" as="geometry" />
        </mxCell>
        <mxCell id="PiwZXt4cNnozb1wIIHgG-60" value="" style="rounded=0;whiteSpace=wrap;html=1;shadow=0;strokeColor=#666666;strokeWidth=2;fontFamily=Ubuntu;fontSize=22;fontColor=#333333;fontStyle=0;fillColor=#f5f5f5;comic=0;" parent="PiwZXt4cNnozb1wIIHgG-56" vertex="1">
          <mxGeometry width="50" height="40" as="geometry" />
        </mxCell>
        <mxCell id="PiwZXt4cNnozb1wIIHgG-73" value="" style="group" parent="1" vertex="1" connectable="0">
          <mxGeometry x="330" y="500" width="200" height="40" as="geometry" />
        </mxCell>
        <mxCell id="PiwZXt4cNnozb1wIIHgG-74" value="3" style="rounded=0;whiteSpace=wrap;html=1;shadow=0;strokeColor=#264653;strokeWidth=2;fontFamily=Ubuntu;fontSize=22;fontColor=#264653;fontStyle=0;fillColor=#2a9d8f;comic=0;" parent="PiwZXt4cNnozb1wIIHgG-73" vertex="1">
          <mxGeometry width="50" height="40" as="geometry" />
        </mxCell>
        <mxCell id="PiwZXt4cNnozb1wIIHgG-75" value="" style="rounded=0;whiteSpace=wrap;html=1;shadow=0;strokeColor=#666666;strokeWidth=2;fontFamily=Ubuntu;fontSize=22;fontColor=#333333;fontStyle=0;fillColor=#f5f5f5;comic=0;" parent="PiwZXt4cNnozb1wIIHgG-73" vertex="1">
          <mxGeometry x="50" width="50" height="40" as="geometry" />
        </mxCell>
        <mxCell id="PiwZXt4cNnozb1wIIHgG-76" value="" style="rounded=0;whiteSpace=wrap;html=1;shadow=0;strokeColor=#666666;strokeWidth=2;fontFamily=Ubuntu;fontSize=22;fontColor=#333333;fontStyle=0;fillColor=#f5f5f5;comic=0;" parent="PiwZXt4cNnozb1wIIHgG-73" vertex="1">
          <mxGeometry x="100" width="50" height="40" as="geometry" />
        </mxCell>
        <mxCell id="PiwZXt4cNnozb1wIIHgG-77" value="" style="rounded=0;whiteSpace=wrap;html=1;shadow=0;strokeColor=#666666;strokeWidth=2;fontFamily=Ubuntu;fontSize=22;fontColor=#333333;fontStyle=0;fillColor=#f5f5f5;comic=0;" parent="PiwZXt4cNnozb1wIIHgG-73" vertex="1">
          <mxGeometry x="150" width="50" height="40" as="geometry" />
        </mxCell>
        <mxCell id="PiwZXt4cNnozb1wIIHgG-95" value="61" style="rounded=0;whiteSpace=wrap;html=1;shadow=0;strokeColor=#6c8ebf;strokeWidth=2;fontFamily=Ubuntu;fontSize=22;fontColor=#264653;fontStyle=0;fillColor=#dae8fc;comic=0;" parent="1" vertex="1">
          <mxGeometry x="530" y="410" width="200" height="40" as="geometry" />
        </mxCell>
        <mxCell id="PiwZXt4cNnozb1wIIHgG-99" value="42" style="rounded=0;whiteSpace=wrap;html=1;shadow=0;strokeColor=#6c8ebf;strokeWidth=2;fontFamily=Ubuntu;fontSize=22;fontColor=#264653;fontStyle=0;fillColor=#dae8fc;comic=0;" parent="1" vertex="1">
          <mxGeometry x="530" y="500" width="200" height="40" as="geometry" />
        </mxCell>
        <mxCell id="PiwZXt4cNnozb1wIIHgG-101" value="43" style="rounded=0;whiteSpace=wrap;html=1;shadow=0;strokeColor=#6c8ebf;strokeWidth=2;fontFamily=Ubuntu;fontSize=22;fontColor=#264653;fontStyle=0;fillColor=#dae8fc;comic=0;" parent="1" vertex="1">
          <mxGeometry x="730" y="500" width="200" height="40" as="geometry" />
        </mxCell>
      </root>
    </mxGraphModel>
  </diagram>
</mxfile>
